<svg width="266" height="129" viewBox="0 0 266 129" fill="none" xmlns="http://www.w3.org/2000/svg">
<path d="M116.407 42.787C115.368 42.7871 114.353 42.4794 113.489 41.9029C112.626 41.3263 111.952 40.5067 111.554 39.5476C111.155 38.5885 111.05 37.5329 111.251 36.514C111.452 35.4951 111.951 34.5587 112.684 33.823C113.419 33.0873 114.356 32.5865 115.376 32.3843C116.397 32.182 117.454 32.2874 118.414 32.687C119.533 33.1544 120.455 33.9943 121.025 35.0644C121.595 36.1344 121.778 37.3687 121.541 38.5579C121.305 39.747 120.665 40.8178 119.729 41.5886C118.793 42.3595 117.619 42.7829 116.407 42.787ZM106.533 61.024C105.16 60.9978 103.852 60.4338 102.891 59.4533C101.93 58.4728 101.392 57.1541 101.393 55.781C101.392 54.4081 101.93 53.0897 102.892 52.1094C103.853 51.1291 105.16 50.5652 106.533 50.539C107.905 50.566 109.212 51.1302 110.173 52.1104C111.133 53.0906 111.671 54.4086 111.67 55.781C111.671 57.1536 111.133 58.4718 110.173 59.4522C109.212 60.4327 107.905 60.997 106.533 61.024ZM122.175 60.417C120.784 60.417 119.451 59.8649 118.467 58.8819C117.483 57.8989 116.93 56.5656 116.929 55.175C116.929 53.7841 117.482 52.4501 118.465 51.4666C119.449 50.483 120.783 49.9305 122.174 49.9305C123.564 49.9305 124.898 50.483 125.882 51.4666C126.865 52.4501 127.418 53.7841 127.418 55.175C127.411 56.5634 126.857 57.8931 125.875 58.8747C124.893 59.8564 123.563 60.4107 122.175 60.417ZM106.533 77.461C105.493 77.4627 104.476 77.1557 103.611 76.5789C102.746 76.0021 102.071 75.1815 101.673 74.221C101.274 73.2613 101.169 72.2047 101.371 71.1852C101.573 70.1657 102.073 69.2291 102.808 68.4941C103.543 67.7592 104.48 67.259 105.499 67.0569C106.519 66.8548 107.575 66.96 108.535 67.359C109.654 67.8254 110.578 68.6647 111.149 69.7345C111.72 70.8044 111.903 72.0387 111.667 73.2282C111.431 74.4177 110.791 75.4889 109.855 76.2601C108.919 77.0313 107.746 77.4549 106.533 77.459V77.461ZM122.175 78.055C120.785 78.0657 119.448 77.5241 118.458 76.5494C117.468 75.5747 116.905 74.2466 116.893 72.857C116.887 72.1689 117.018 71.4864 117.276 70.8485C117.534 70.2107 117.915 69.6299 118.398 69.1395C118.881 68.649 119.455 68.2584 120.089 67.99C120.723 67.7215 121.403 67.5805 122.091 67.575C122.779 67.5695 123.462 67.6996 124.099 67.9578C124.737 68.216 125.318 68.5974 125.809 69.0801C126.299 69.5628 126.69 70.1373 126.958 70.7709C127.226 71.4046 127.367 72.0849 127.373 72.773C127.379 74.1612 126.836 75.4954 125.862 76.4848C124.888 77.4743 123.563 78.0387 122.175 78.055ZM64.2 77.851C56.544 77.851 50.337 71.644 50.341 63.988C50.341 56.332 56.553 50.124 64.208 50.128C71.864 50.133 78.068 56.344 78.06 64C78.048 71.648 71.849 77.844 64.201 77.852L64.2 77.851ZM116.112 95.983C114.722 95.9812 113.39 95.4276 112.409 94.4441C111.427 93.4606 110.876 92.1276 110.877 90.738C110.878 89.3476 111.43 88.0144 112.414 87.0316C113.397 86.0488 114.731 85.497 116.122 85.4975C117.512 85.498 118.845 86.0509 119.828 87.0344C120.811 88.018 121.363 89.3516 121.362 90.742C121.36 92.133 120.806 93.4663 119.821 94.4492C118.837 95.432 117.503 95.983 116.112 95.983ZM64.603 128C35.962 128.008 10.803 108.99 3.00401 81.434C-4.79899 53.879 6.65801 24.49 31.05 9.48701C55.442 -5.51699 86.837 -2.48999 107.912 16.9L92.777 32.787C75.952 17.602 50.12 18.484 34.37 34.78C18.623 51.077 18.623 76.92 34.37 93.218C50.12 109.515 75.952 110.396 92.777 95.213L107.912 111.099C96.1114 121.974 80.6492 128.007 64.602 127.999L64.603 128Z" fill="black"/>
<path d="M142.1 128.1C141.5 128.1 141.2 127.767 141.2 127.1C141.2 126.633 141.333 126.2 141.6 125.8C141.867 125.4 142.1 124.967 142.3 124.5C142.433 124.367 142.5 124 142.5 123.4C142.5 122.867 142.5 122.567 142.5 122.5C142.5 122.167 142.567 121.867 142.7 121.6C142.833 121.333 143 121.033 143.2 120.7C143.4 120.5 143.7 120 144.1 119.2C144.5 118.467 144.867 117.7 145.2 116.9C145.533 116.1 145.733 115.6 145.8 115.4C145.867 114.667 146.233 113.933 146.9 113.2C147.633 112.467 147.967 111.833 147.9 111.3L148.6 109.2C148.333 108.667 148.067 108.133 147.8 107.6C147.6 107.067 147.4 106.6 147.2 106.2C146.133 104.467 145.333 102.9 144.8 101.5C144.267 100.033 143.333 98.5 142 96.9C141.933 96.0333 141.667 94.9667 141.2 93.7C140.8 92.3667 140.333 91.0667 139.8 89.8C139.333 88.5333 138.933 87.5333 138.6 86.8C138.067 85.6667 137.467 84.5667 136.8 83.5C136.2 82.3667 135.733 81.2333 135.4 80.1C135.133 79.1 134.667 77.9 134 76.5C133.4 75.0333 132.767 73.6 132.1 72.2C131.433 70.7333 130.867 69.4667 130.4 68.4C129.933 67.3333 129.7 66.6667 129.7 66.4C129.7 65.6 129.567 64.9667 129.3 64.5C129.1 63.9667 129 63.6 129 63.4C129 63.0667 129.267 62.8667 129.8 62.8C130.333 62.7333 131.433 62.7 133.1 62.7C135.5 62.7667 138.567 62.8333 142.3 62.9C146.1 62.9667 150.1 63 154.3 63C156.633 63 158.967 63 161.3 63C163.7 62.9333 166.033 62.8333 168.3 62.7C169.233 62.7 170 62.7667 170.6 62.9C171.267 63.0333 171.667 63.2667 171.8 63.6C172.067 64.0667 172.2 64.6 172.2 65.2C172.2 66.0667 171.967 66.9333 171.5 67.8C171.033 68.6667 170.567 69.5667 170.1 70.5C169.633 71.3667 169.4 72.2667 169.4 73.2C169.4 73.5333 169.267 73.7667 169 73.9C168.333 74.5667 167.8 75.3 167.4 76.1C167.067 76.9 166.733 77.7 166.4 78.5C165.867 79.7667 165.133 81.4 164.2 83.4C163.267 85.3333 162.3 87.4 161.3 89.6C160.3 91.8 159.367 93.9 158.5 95.9C157.7 97.8333 157.1 99.4333 156.7 100.7C156.367 101.7 155.767 103 154.9 104.6C154.1 106.133 153.333 107.5 152.6 108.7C151.933 109.967 151.6 110.6 151.6 110.6C151.2 111.4 150.667 112.5 150 113.9C149.333 115.367 148.833 116.4 148.5 117C148.1 117.733 147.733 118.6 147.4 119.6C147.067 120.667 146.433 121.967 145.5 123.5C144.9 125.367 144.3 126.6 143.7 127.2C143.167 127.8 142.633 128.1 142.1 128.1ZM150.4 105.8C150.667 105.4 151.167 104.4 151.9 102.8C152.633 101.2 153.467 99.3 154.4 97.1C155.4 94.9 156.367 92.6667 157.3 90.4C158.3 88.1333 159.2 86.1333 160 84.4C160.8 82.6 161.4 81.3667 161.8 80.7C162.867 79.0333 163.8 77.3333 164.6 75.6C165.4 73.8 166.3 72.0667 167.3 70.4C167.633 69.8667 167.767 69.1667 167.7 68.3C167.633 67.3667 167.9 66.5667 168.5 65.9C167.833 66.0333 166.867 66.1667 165.6 66.3C164.4 66.4333 163.233 66.5 162.1 66.5C161.567 66.5 161.067 66.5 160.6 66.5C160.133 66.4333 159.733 66.3667 159.4 66.3C157.8 65.9 156.2 65.7 154.6 65.7C153.6 65.7 152.267 65.7333 150.6 65.8C149 65.8 147.3 65.8 145.5 65.8C143.767 65.8 142.2 65.8 140.8 65.8C139.4 65.8 138.433 65.8 137.9 65.8C137.767 65.7333 137.367 65.7 136.7 65.7C136.033 65.7 135.267 65.7333 134.4 65.8C133.6 65.8667 133.1 65.8667 132.9 65.8C132.9 66.8667 133.233 67.9 133.9 68.9C134.633 69.9 135.133 70.8667 135.4 71.8C135.6 72.6 135.867 73.3667 136.2 74.1C136.533 74.7667 136.833 75.4667 137.1 76.2C137.3 76.8667 137.567 77.4333 137.9 77.9C138.3 78.3 138.533 78.8667 138.6 79.6C138.6 80.0667 138.833 80.8333 139.3 81.9C139.833 82.9667 140.367 84.0667 140.9 85.2C141.5 86.2667 141.9 87.0333 142.1 87.5C142.367 87.9667 142.867 89.0333 143.6 90.7C144.333 92.3 145.133 94.1333 146 96.2C146.933 98.2 147.8 100.1 148.6 101.9C149.4 103.633 150 104.933 150.4 105.8ZM151.8 83.4C149.6 83.4 148.4 83.3 148.2 83.1C147.867 82.7 147.6 82.2667 147.4 81.8C147.2 81.2667 147 80.7667 146.8 80.3C146.667 79.9667 146.9 79.5 147.5 78.9C148.1 78.3 148.633 77.9667 149.1 77.9C149.5 77.8333 149.833 77.7 150.1 77.5C150.367 77.2333 150.8 77.2 151.4 77.4C152.133 77.7333 152.667 78.1667 153 78.7C153.4 79.2333 153.733 79.8 154 80.4C154.133 80.6667 153.867 81.2333 153.2 82.1C152.6 82.9667 152.133 83.4 151.8 83.4ZM150.8 81.2C150.933 81.2 151.1 81.0667 151.3 80.8C151.5 80.5333 151.567 80.3667 151.5 80.3C151.367 80.1 151.233 79.9333 151.1 79.8C151.033 79.6 150.9 79.4667 150.7 79.4C150.5 79.2667 150.367 79.2667 150.3 79.4C150.233 79.4667 150.133 79.5 150 79.5C149.867 79.5667 149.7 79.6667 149.5 79.8C149.3 79.9333 149.233 80.0667 149.3 80.2C149.433 80.4667 149.6 80.7333 149.8 81C149.867 81.1333 150.2 81.2 150.8 81.2Z" fill="black"/>
<path d="M179.715 108.1C179.115 108.1 178.582 107.867 178.115 107.4C178.048 107.2 177.948 106.9 177.815 106.5C177.682 106.1 177.582 105.333 177.515 104.2C177.448 103 177.382 101.233 177.315 98.9C177.315 98.5667 177.282 98.2667 177.215 98C177.148 97.6667 177.182 97.4 177.315 97.2C177.448 97 177.582 96.0667 177.715 94.4C177.848 92.7333 177.948 90.6667 178.015 88.2C178.082 85.6667 178.115 83.1333 178.115 80.6C178.182 78 178.215 75.7 178.215 73.7C178.215 72.3667 178.215 71.2667 178.215 70.4C178.215 69.4667 178.182 68.9667 178.115 68.9C177.848 67.7 177.748 66.8333 177.815 66.3C177.948 65.7667 177.948 65.2667 177.815 64.8C177.748 64.6667 177.715 64.5 177.715 64.3C177.715 63.5 178.348 63.0333 179.615 62.9C182.148 62.7667 183.982 62.7333 185.115 62.8C186.248 62.8667 187.515 62.9333 188.915 63H192.115C193.648 63 195.315 63.1 197.115 63.3C198.982 63.4333 200.248 63.3333 200.915 63C201.048 62.9333 201.215 62.9 201.415 62.9C202.082 62.9 202.415 63.2667 202.415 64C202.482 66.0667 202.515 67.8333 202.515 69.3C202.515 70.7 202.515 72.1 202.515 73.5C202.515 74.9 202.515 76.3667 202.515 77.9C202.515 79.3667 202.482 81.1667 202.415 83.3C202.215 83.7667 201.882 84 201.415 84C200.548 84 199.748 83.5667 199.015 82.7C198.748 82.3667 198.515 82 198.315 81.6C198.182 81.2 197.948 80.8667 197.615 80.6C197.282 80.2667 196.882 80 196.415 79.8C195.948 79.6 195.548 79.3333 195.215 79C193.548 77.0667 191.682 75.4 189.615 74C187.548 72.5333 185.682 70.8667 184.015 69C183.882 68.8667 183.715 68.7333 183.515 68.6C183.382 68.4667 183.248 68.3 183.115 68.1C182.648 67.2333 182.215 66.8 181.815 66.8C181.415 66.8 181.215 67.0667 181.215 67.6L180.815 107.4C180.615 107.867 180.248 108.1 179.715 108.1ZM199.515 78.1C199.848 77.9667 199.848 77.5 199.515 76.7C199.248 75.9 199.115 75.2 199.115 74.6C199.182 74.3333 199.248 74.0667 199.315 73.8C199.382 73.5333 199.448 73.3 199.515 73.1C199.848 72.7667 199.848 72.1667 199.515 71.3C199.448 70.9667 199.448 70.6 199.515 70.2C199.648 69.8 199.648 69.4333 199.515 69.1C199.448 68.7 199.448 68.2333 199.515 67.7C199.648 67.1667 199.682 66.8 199.615 66.6C199.548 66.2667 199.282 66.1333 198.815 66.2C198.415 66.2667 197.915 66.3 197.315 66.3C195.982 66.3 194.715 66.3333 193.515 66.4C192.315 66.4 191.048 66.4 189.715 66.4C188.582 66.4 187.682 66.3667 187.015 66.3C186.348 66.2333 185.948 66.2333 185.815 66.3C186.815 67.3 188.048 68.5 189.515 69.9C190.982 71.2333 192.448 72.5333 193.915 73.8C195.382 75.0667 196.648 76.1333 197.715 77C198.782 77.8 199.382 78.1667 199.515 78.1Z" fill="black"/>
<path d="M228.888 108.1C227.822 107.967 227.055 107.9 226.588 107.9C226.188 107.9 225.788 107.9 225.388 107.9H218.688L209.188 108C208.122 108 207.355 107.867 206.888 107.6C206.488 107.333 206.255 107.033 206.188 106.7C206.122 106.3 206.188 105.933 206.388 105.6C206.655 105.2 206.822 104.967 206.888 104.9C207.355 104.767 208.655 104.767 210.788 104.9C212.988 105.033 215.588 105.033 218.588 104.9C218.788 104.9 218.955 104.867 219.088 104.8C219.288 104.733 219.255 104.533 218.988 104.2C218.788 103.867 218.722 103.433 218.788 102.9C218.922 102.3 218.988 101.8 218.988 101.4C218.988 100.933 218.922 100.467 218.788 100C218.655 99.5333 218.655 99.0667 218.788 98.6C218.922 98.1333 219.055 97.7333 219.188 97.4C219.388 97 219.488 96.5667 219.488 96.1V68.8C219.488 68.2667 219.422 67.7333 219.288 67.2C219.155 66.6 218.922 66.2667 218.588 66.2C217.855 65.9333 216.822 65.8 215.488 65.8C214.422 65.8 213.322 65.8667 212.188 66C211.055 66.0667 210.055 66.1 209.188 66.1C208.922 66.1 208.522 66.1 207.988 66.1C207.455 66.1 207.022 66.0333 206.688 65.9C206.422 65.7667 206.122 65.5333 205.788 65.2C205.522 64.8667 205.422 64.6333 205.488 64.5C205.822 63.5 206.488 63 207.488 63H235.988C236.588 63.1333 236.888 63.7 236.888 64.7C236.888 65.1667 236.355 65.6 235.288 66C234.222 66.4 233.122 66.6 231.988 66.6C231.655 66.6 231.322 66.5667 230.988 66.5C230.722 66.3667 230.455 66.2667 230.188 66.2C229.655 66.6667 229.088 66.9 228.488 66.9L224.988 66.2C224.188 66.2 223.588 66.5333 223.188 67.2C222.788 67.8 222.588 68.5 222.588 69.3V71C222.455 71.9333 222.322 72.8667 222.188 73.8C222.055 74.6667 222.022 75.6667 222.088 76.8C222.222 77.3333 222.322 77.9333 222.388 78.6C222.522 79.2 222.688 79.8333 222.888 80.5C222.888 81.3 222.822 82.1333 222.688 83C222.555 83.8 222.622 84.7 222.888 85.7C223.022 86.1 222.988 86.5333 222.788 87C222.655 87.4 222.588 87.6 222.588 87.6C222.322 88.0667 222.322 88.5 222.588 88.9C222.855 89.3 222.955 89.7667 222.888 90.3C222.822 90.7667 222.722 91.2667 222.588 91.8C222.522 92.3333 222.588 92.7333 222.788 93C223.122 93.4667 223.188 94 222.988 94.6C222.788 95.1333 222.688 96 222.688 97.2C222.688 97.2 222.655 98 222.588 99.6C222.522 101.133 222.488 102.767 222.488 104.5C222.488 104.5 222.655 104.567 222.988 104.7C223.322 104.833 223.988 104.9 224.988 104.9H235.988C236.255 104.9 236.488 105.1 236.688 105.5C236.888 105.833 236.955 106.2 236.888 106.6C236.888 106.867 236.522 107.1 235.788 107.3C235.055 107.5 234.188 107.667 233.188 107.8C232.188 107.933 231.255 108 230.388 108C229.588 108.067 229.088 108.1 228.888 108.1ZM221.188 59.8C220.255 59.8 219.388 59.6 218.588 59.2C217.855 58.8 217.388 58.3333 217.188 57.8C217.055 57.4 217.055 56.7333 217.188 55.8C217.322 54.8 217.855 54.0667 218.788 53.6C219.388 53.1333 220.022 52.8 220.688 52.6C221.355 52.3333 221.922 52.3667 222.388 52.7C222.722 52.9667 223.122 53.2333 223.588 53.5C224.055 53.7 224.488 53.9 224.888 54.1C225.688 54.7 225.888 55.3667 225.488 56.1C225.022 56.9667 224.488 57.8 223.888 58.6C223.355 59.4 222.455 59.8 221.188 59.8Z" fill="black"/>
<path d="M245.44 109C244.973 108.933 244.54 108.7 244.14 108.3C243.807 107.967 243.607 107.567 243.54 107.1C243.54 106.7 243.54 105.967 243.54 104.9C243.54 103.833 243.54 102.7 243.54 101.5C243.607 100.233 243.64 99.1 243.64 98.1C243.64 97.0333 243.64 96.3 243.64 95.9C243.64 95.3667 243.573 94.7333 243.44 94C243.373 93.2 243.173 91.8333 242.84 89.9C243.173 88.5667 243.373 87.0667 243.44 85.4C243.573 83.6667 243.64 82.1333 243.64 80.8C243.64 80.3333 243.64 79.7667 243.64 79.1C243.64 78.4333 243.607 77.3667 243.54 75.9C243.54 74.4333 243.54 72.3 243.54 69.5C243.54 68.1 243.607 66.8333 243.74 65.7C243.94 64.5667 243.873 63.7667 243.54 63.3C243.273 62.8333 243.14 62.2667 243.14 61.6C243.14 60.8667 243.207 60.2 243.34 59.6C243.473 59 243.54 58.7 243.54 58.7C243.54 58.3667 243.607 58 243.74 57.6C243.873 57.1333 243.807 56.7667 243.54 56.5C243.14 56.1 243.04 55.5 243.24 54.7C243.44 53.8333 243.54 53.0333 243.54 52.3C243.54 51.8333 243.64 51.3667 243.84 50.9C244.107 50.3667 244.007 49.8667 243.54 49.4C243.54 49.4 243.607 49.0667 243.74 48.4C243.873 47.6667 243.807 46.9333 243.54 46.2C243.473 45.9333 243.473 45.6667 243.54 45.4C243.673 45.1333 243.673 44.9 243.54 44.7C243.273 44.3 243.207 43.8333 243.34 43.3C243.473 42.7667 243.54 42.2667 243.54 41.8C243.54 40.6 243.673 39.6667 243.94 39C244.273 38.2667 245.04 38 246.24 38.2C246.907 38.8667 247.24 39.6 247.24 40.4C247.24 41.1333 247.14 41.8333 246.94 42.5C246.74 43.1 246.64 43.6 246.64 44V102.9C246.64 103.367 246.873 103.667 247.34 103.8L258.94 96.1C260.873 94.5667 262.34 93.6 263.34 93.2C264.407 92.7333 265.107 92.8 265.44 93.4C265.773 93.8667 265.773 94.1667 265.44 94.3C265.107 94.4333 264.94 94.8 264.94 95.4C264.94 96.5333 264.54 97.2 263.74 97.4C263.007 97.5333 262.307 97.8667 261.64 98.4C260.24 99.5333 258.673 100.733 256.94 102C255.207 103.267 253.507 104.433 251.84 105.5C250.173 106.567 248.74 107.4 247.54 108C246.407 108.667 245.707 109 245.44 109Z" fill="black"/>
</svg>
