<svg width="20" height="21" viewBox="0 0 20 21" fill="none" xmlns="http://www.w3.org/2000/svg">
<path d="M9 7C9 8.10457 8.10457 9 7 9C5.89543 9 5 8.10457 5 7C5 5.89543 5.89543 5 7 5C8.10457 5 9 5.89543 9 7Z" fill="#D9D9D9"/>
<path d="M12.7487 10.9941C11.883 12.2401 10.6359 13.1711 9.19518 13.6469C7.75449 14.1227 6.19821 14.1175 4.76071 13.6322C3.32321 13.1468 2.08233 12.2075 1.22492 10.9558C0.367512 9.70408 -0.0599919 8.20766 0.00678635 6.69191C0.0735646 5.17616 0.63101 3.72313 1.59517 2.55165C2.55934 1.38018 3.87802 0.553673 5.35263 0.19661C6.82724 -0.160452 8.37794 -0.0287409 9.77121 0.571908C11.1645 1.17256 12.3249 2.20962 13.0776 3.52693L10.6769 4.89884C10.2215 4.10188 9.51946 3.47447 8.67655 3.11108C7.83364 2.7477 6.89548 2.66801 6.00336 2.88403C5.11124 3.10005 4.31345 3.60008 3.73015 4.3088C3.14684 5.01753 2.80959 5.8966 2.76919 6.81361C2.72879 7.73062 2.98743 8.63594 3.50615 9.39322C4.02487 10.1505 4.77559 10.7187 5.64526 11.0124C6.51493 11.306 7.45646 11.3091 8.32806 11.0213C9.19966 10.7334 9.95414 10.1702 10.4779 9.41638L12.7487 10.9941Z" fill="#D9D9D9"/>
<path d="M4.42416 19.9651C6.21598 20.5495 8.1237 20.6858 9.98039 20.3622C11.8371 20.0386 13.5862 19.2649 15.0747 18.1088C16.5631 16.9527 17.7456 15.4495 18.5187 13.7306C19.2917 12.0118 19.6317 10.1296 19.509 8.24896L16.7231 8.43076C16.8161 9.8562 16.5584 11.2827 15.9725 12.5855C15.3866 13.8883 14.4903 15.0276 13.3622 15.9039C12.234 16.7801 10.9083 17.3665 9.50101 17.6118C8.09376 17.8571 6.64783 17.7538 5.28975 17.3109L4.42416 19.9651Z" fill="#D9D9D9"/>
<path d="M9.8007 8.33496C9.73021 9.28033 9.88445 10.229 10.2508 11.1033C10.6172 11.9776 11.1853 12.7528 11.9087 13.3655C12.6321 13.9782 13.4902 14.411 14.4129 14.6286C15.3356 14.8461 16.2967 14.8421 17.2175 14.617L16.6027 12.1018C16.0788 12.2298 15.532 12.2321 15.007 12.1083C14.482 11.9846 13.9938 11.7383 13.5822 11.3897C13.1706 11.0411 12.8474 10.6 12.639 10.1026C12.4305 9.60512 12.3427 9.06539 12.3828 8.52751L9.8007 8.33496Z" fill="#D9D9D9"/>
</svg>
